<svg xmlns="http://www.w3.org/2000/svg" viewBox="0 -960 960 960" fill="#004cc8"><path d="M200 -80Q167 -80 143.5 -103.5Q120 -127 120 -160V-720Q120 -753 143.5 -776.5Q167 -800 200 -800H240V-880H320V-800H640V-880H720V-800H760Q793 -800 816.5 -776.5Q840 -753 840 -720V-160Q840 -127 816.5 -103.5Q793 -80 760 -80ZM200 -160H760Q760 -160 760.0 -160.0Q760 -160 760 -160V-560H200V-160Q200 -160 200.0 -160.0Q200 -160 200 -160ZM200 -640H760V-720Q760 -720 760.0 -720.0Q760 -720 760 -720H200Q200 -720 200.0 -720.0Q200 -720 200 -720ZM200 -640V-720Q200 -720 200.0 -720.0Q200 -720 200 -720Q200 -720 200.0 -720.0Q200 -720 200 -720V-640ZM480 -400Q463 -400 451.5 -411.5Q440 -423 440.0 -440.0Q440 -457 451.5 -468.5Q463 -480 480 -480Q497 -480 508.5 -468.5Q520 -457 520.0 -440.0Q520 -423 508.5 -411.5Q497 -400 480 -400ZM320.0 -400.0Q303 -400 291.5 -411.5Q280 -423 280.0 -440.0Q280 -457 291.5 -468.5Q303 -480 320.0 -480.0Q337 -480 348.5 -468.5Q360 -457 360.0 -440.0Q360 -423 348.5 -411.5Q337 -400 320.0 -400.0ZM640 -400Q623 -400 611.5 -411.5Q600 -423 600.0 -440.0Q600 -457 611.5 -468.5Q623 -480 640 -480Q657 -480 668.5 -468.5Q680 -457 680.0 -440.0Q680 -423 668.5 -411.5Q657 -400 640 -400ZM480 -240Q463 -240 451.5 -251.5Q440 -263 440 -280Q440 -297 451.5 -308.5Q463 -320 480 -320Q497 -320 508.5 -308.5Q520 -297 520 -280Q520 -263 508.5 -251.5Q497 -240 480 -240ZM280 -280Q280 -297 291.5 -308.5Q303 -320 320.0 -320.0Q337 -320 348.5 -308.5Q360 -297 360 -280Q360 -263 348.5 -251.5Q337 -240 320.0 -240.0Q303 -240 291.5 -251.5Q280 -263 280 -280ZM640 -240Q623 -240 611.5 -251.5Q600 -263 600 -280Q600 -297 611.5 -308.5Q623 -320 640 -320Q657 -320 668.5 -308.5Q680 -297 680 -280Q680 -263 668.5 -251.5Q657 -240 640 -240Z"/></svg>
